<svg xmlns="http://www.w3.org/2000/svg" viewBox="0 0 45.27 30.22"><defs><style>.a{fill:none;stroke:#fff;stroke-linecap:round;stroke-linejoin:round;stroke-width:1.72px;}.b{fill:#fff;}</style></defs><rect class="a" x="0.86" y="0.86" width="43.54" height="28.5" rx="4.73"/><path class="b" d="M21.58,10.82l-1.08.83a5.79,5.79,0,0,0-2.13-1.76,6.29,6.29,0,0,0-2.75-.6,6.07,6.07,0,0,0-3,.78,5.69,5.69,0,0,0-2.16,2.11,5.81,5.81,0,0,0-.76,3,5.58,5.58,0,0,0,1.71,4.17A5.94,5.94,0,0,0,15.71,21a6,6,0,0,0,4.79-2.25l1.08.82a6.8,6.8,0,0,1-2.55,2,8,8,0,0,1-3.41.71A7.11,7.11,0,0,1,10,19.89,7.21,7.21,0,0,1,8.24,15a6.76,6.76,0,0,1,2.1-5,7.27,7.27,0,0,1,5.27-2,7.8,7.8,0,0,1,3.45.76A6.82,6.82,0,0,1,21.58,10.82Z"/><path class="b" d="M37,10.82,36,11.65a5.82,5.82,0,0,0-2.14-1.76,6.22,6.22,0,0,0-2.74-.6,6,6,0,0,0-3,.78,5.69,5.69,0,0,0-2.16,2.11,5.82,5.82,0,0,0-.77,3,5.55,5.55,0,0,0,1.72,4.17A5.94,5.94,0,0,0,31.15,21,6.07,6.07,0,0,0,36,18.74l1.08.82a6.8,6.8,0,0,1-2.55,2,8,8,0,0,1-3.41.71,7.09,7.09,0,0,1-5.65-2.39A7.16,7.16,0,0,1,23.69,15a6.76,6.76,0,0,1,2.1-5,7.25,7.25,0,0,1,5.26-2,7.74,7.74,0,0,1,3.45.76A6.78,6.78,0,0,1,37,10.82Z"/></svg>