<svg xmlns="http://www.w3.org/2000/svg" viewBox="0 0 104.25 77.48"><defs><style>.a{fill:none;stroke:#fff;stroke-linecap:round;stroke-miterlimit:10;stroke-width:1.5px;}</style></defs><path class="a" d="M.75,42.73v31a3,3,0,0,0,3,3H78.72a3,3,0,0,0,3-3V25.16a3,3,0,0,0-3-3H3.79a3,3,0,0,0-3,3v8.49"/><path class="a" d="M43.63,68.48H13.41a3,3,0,0,1-3-3V35.24a3,3,0,0,1,3-3H43.63a3,3,0,0,1,3,3V65.46A3,3,0,0,1,43.63,68.48Z"/><line class="a" x1="52.53" y1="38.96" x2="62.86" y2="38.96"/><line class="a" x1="52.53" y1="47.01" x2="75.86" y2="47.01"/><line class="a" x1="52.53" y1="55.06" x2="75.86" y2="55.06"/><line class="a" x1="52.53" y1="63.1" x2="75.86" y2="63.1"/><path class="a" d="M86.59,66.3h2.94a3,3,0,0,0,3-3V14.73a3,3,0,0,0-3-3H14.59a3,3,0,0,0-3,3v2.49"/><path class="a" d="M97.53,55.36h2.93a3,3,0,0,0,3-3V3.79a3,3,0,0,0-3-3H25.53a3,3,0,0,0-3,3V6.28"/></svg>