<svg xmlns="http://www.w3.org/2000/svg" viewBox="0 0 63.15 78.1"><defs><style>.a{fill:none;stroke:#fff;stroke-linecap:round;stroke-linejoin:round;stroke-width:1.5px;}.b{fill:#fff;}</style></defs><path class="a" d="M19.14,44.32l-4.56,3.52V37.61H8.53A1.72,1.72,0,0,1,6.8,35.88V2.48A1.72,1.72,0,0,1,8.53.75H60.67A1.72,1.72,0,0,1,62.4,2.48v33.4a1.72,1.72,0,0,1-1.73,1.73H27.83l-2.33,1.8"/><path class="a" d="M6.51,67.12h-4A1.72,1.72,0,0,1,.75,65.39V32a1.73,1.73,0,0,1,1.73-1.73h4"/><path class="a" d="M51.31,41.93V65.39a1.73,1.73,0,0,1-1.73,1.73h-6V77.35L30.28,67.12h-15"/><line class="a" x1="9.54" y1="58.41" x2="45.98" y2="58.41"/><line class="a" x1="23.22" y1="51.33" x2="45.98" y2="51.33"/><line class="a" x1="29.99" y1="43.23" x2="45.98" y2="43.23"/><path class="b" d="M39.56,15.24a9.72,9.72,0,0,1-1,1.79L35.88,21a3.29,3.29,0,0,0-.56,1.89v1.47H33.71V22.91a4.87,4.87,0,0,1,.92-2.83l3.07-4.59.35-.66a4.13,4.13,0,0,0,.28-1.54,4,4,0,0,0-1.16-2.95,4.11,4.11,0,0,0-5.78.06,4,4,0,0,0-1.06,2.23.78.78,0,0,1-.78.66h0a.81.81,0,0,1-.8-.92,5.2,5.2,0,0,1,1.48-3,5.46,5.46,0,0,1,4.08-1.64,5.61,5.61,0,0,1,4,1.57,5.38,5.38,0,0,1,1.61,4A5.1,5.1,0,0,1,39.56,15.24Z"/><circle class="b" cx="34.55" cy="29.23" r="1.47"/></svg>