<svg xmlns="http://www.w3.org/2000/svg" viewBox="0 0 17.13 35.23"><defs><style>.a{fill:#658b9a;}</style></defs><path class="a" d="M5.53,25.92v-.87a10.85,10.85,0,0,1,.88-4.71,13.16,13.16,0,0,1,3.25-3.91l2.13-1.85a9.75,9.75,0,0,0,2.41-2.84,6.87,6.87,0,0,0,.73-3.23,6,6,0,0,0-2-4.74A7.4,7.4,0,0,0,7.83,2a13.76,13.76,0,0,0-3.47.41A18,18,0,0,0,.87,3.75L0,1.88A22.43,22.43,0,0,1,4.32.38,16.54,16.54,0,0,1,7.92,0a9.47,9.47,0,0,1,6.75,2.31,8.27,8.27,0,0,1,2.46,6.34,8.44,8.44,0,0,1-.42,2.79,8.26,8.26,0,0,1-1.18,2.21,12.94,12.94,0,0,1-1.84,2c-.72.63-1.52,1.32-2.39,2.05A16.64,16.64,0,0,0,9,20a7.07,7.07,0,0,0-1.17,2.19,11.8,11.8,0,0,0-.37,3.42v.33Zm-.77,7c0-1.53.62-2.3,1.87-2.3s1.92.77,1.92,2.3-.64,2.3-1.92,2.3S4.76,34.46,4.76,32.93Z"/></svg>