<svg xmlns="http://www.w3.org/2000/svg" viewBox="0 0 25.58 42.12"><defs><style>.a{fill:none;stroke:#fff;stroke-linecap:round;stroke-miterlimit:10;stroke-width:1.69px;}</style></defs><path class="a" d="M.84,28.34v-26A1.52,1.52,0,0,1,2.36.84H7.59A1.52,1.52,0,0,1,9.11,2.36v37.4a1.52,1.52,0,0,1-1.52,1.51H2.36A1.52,1.52,0,0,1,.84,39.76V36.07"/><path class="a" d="M16.46,28.34v-26A1.52,1.52,0,0,1,18,.84h5.23a1.52,1.52,0,0,1,1.52,1.52v37.4a1.52,1.52,0,0,1-1.52,1.51H18a1.52,1.52,0,0,1-1.52-1.51V36.07"/></svg>