<svg xmlns="http://www.w3.org/2000/svg" viewBox="0 0 111.98 75.81"><defs><style>.a{fill:none;stroke:#fff;stroke-miterlimit:10;}</style></defs><path class="a" d="M.5,23.25v47.9a4.16,4.16,0,0,0,4.16,4.16H107.32a4.17,4.17,0,0,0,4.16-4.16V4.66A4.16,4.16,0,0,0,107.32.5H4.66A4.16,4.16,0,0,0,.5,4.66V16.29H106.42"/><path class="a" d="M23.73,32.94h-7a.7.7,0,0,1-.7-.7v-7a.71.71,0,0,1,.7-.71h7a.7.7,0,0,1,.7.71v7A.7.7,0,0,1,23.73,32.94Z"/><path class="a" d="M35.81,32.94h-2.1a.7.7,0,0,1-.71-.7v-7a.71.71,0,0,1,.71-.71H93.07a.7.7,0,0,1,.7.71v7a.7.7,0,0,1-.7.7H42.14"/><path class="a" d="M51.52,49.07H33.71a.71.71,0,0,1-.71-.7v-7a.7.7,0,0,1,.71-.7H93.07a.7.7,0,0,1,.7.7v7a.7.7,0,0,1-.7.7H57.84"/><path class="a" d="M66.42,65.19H33.71a.7.7,0,0,1-.71-.7v-7a.7.7,0,0,1,.71-.7H93.07a.7.7,0,0,1,.7.7v7a.7.7,0,0,1-.7.7H72.74"/><rect class="a" x="16" y="40.64" width="8.43" height="8.43" rx="0.51"/><rect class="a" x="16" y="56.76" width="8.43" height="8.43" rx="0.51"/></svg>