<svg xmlns="http://www.w3.org/2000/svg" viewBox="0 0 61.4 74.94"><defs><style>.a{fill:none;stroke:#fff;stroke-linecap:round;stroke-linejoin:round;stroke-width:1.5px;}</style></defs><line class="a" x1="10.7" y1="40.12" x2="50.39" y2="40.12"/><line class="a" x1="39.52" y1="31.63" x2="50.39" y2="31.63"/><line class="a" x1="39.52" y1="23.13" x2="50.39" y2="23.13"/><line class="a" x1="10.7" y1="48.61" x2="50.39" y2="48.61"/><line class="a" x1="10.7" y1="57.1" x2="50.39" y2="57.1"/><line class="a" x1="10.7" y1="65.6" x2="42.39" y2="65.6"/><path class="a" d="M48.88,14.87H60.65L46.53.75V12.51A2.35,2.35,0,0,0,48.88,14.87Z"/><path class="a" d="M17.49,74.19h40.8a2.36,2.36,0,0,0,2.36-2.36v-57L46.53.75H3.11A2.36,2.36,0,0,0,.75,3.11V71.83a2.36,2.36,0,0,0,2.36,2.36H7.89"/><path class="a" d="M15.43,32H13A2.16,2.16,0,0,1,10.8,29.8V10.11A2.16,2.16,0,0,1,13,8H31a2.16,2.16,0,0,1,2.15,2.16V29.8A2.15,2.15,0,0,1,31,32H21.37"/></svg>