<svg xmlns="http://www.w3.org/2000/svg" xmlns:xlink="http://www.w3.org/1999/xlink" viewBox="0 0 390.78 68.76"><defs><style>.a{fill:#b9ced6;}.b{fill:#96b5c1;}</style><symbol id="a" viewBox="0 0 390.78 68.76"><path class="a" d="M64.87,55.66A6.2,6.2,0,0,1,62.14,59a9,9,0,0,1-4.68,1.16,10.61,10.61,0,0,1-3.59-.57A7.3,7.3,0,0,1,51.27,58a9.05,9.05,0,0,1-1.84-2.79H51.6a5.79,5.79,0,0,0,2.29,2.29,7.46,7.46,0,0,0,3.48.74,7.17,7.17,0,0,0,3.46-.76,4.68,4.68,0,0,0,2-1.92,8.56,8.56,0,0,0,.6-3.73v-.8a7.47,7.47,0,0,1-2.76,2.2,8.24,8.24,0,0,1-7.5-.3,7.53,7.53,0,0,1-2.92-2.87,7.8,7.8,0,0,1-1-4,8.1,8.1,0,0,1,8-8.07,7.48,7.48,0,0,1,3.26.72,9,9,0,0,1,2.91,2.39V38.47h1.94V0H0V65.38H65.38V52.77A10.32,10.32,0,0,1,64.87,55.66ZM17,49.43a6.06,6.06,0,0,0,2.38,2.33,6.9,6.9,0,0,0,3.37.83,6.82,6.82,0,0,0,5.6-2.73l1.59,1a7.51,7.51,0,0,1-3,2.61,9.59,9.59,0,0,1-4.29.92,8.47,8.47,0,0,1-6.12-2.34,7.65,7.65,0,0,1-2.43-5.71,8.15,8.15,0,0,1,1.14-4.2,8,8,0,0,1,3.12-3,9.08,9.08,0,0,1,4.45-1.09,9.63,9.63,0,0,1,3,.47,8.58,8.58,0,0,1,2.44,1.23,6.77,6.77,0,0,1,1.7,1.93l-1.59,1A6.64,6.64,0,0,0,22.7,40,6.48,6.48,0,0,0,18,41.79a6,6,0,0,0-1.88,4.44A6.37,6.37,0,0,0,17,49.43ZM45.33,52a7.58,7.58,0,0,1-5.64,2.39,7.49,7.49,0,0,1-3.41-.77,8.55,8.55,0,0,1-2.82-2.3v8.37h-2V38.47h2v2.86a8,8,0,0,1,2.73-2.44,7.2,7.2,0,0,1,3.45-.82,7.69,7.69,0,0,1,5.67,2.39,7.9,7.9,0,0,1,2.36,5.75A8,8,0,0,1,45.33,52Z"/><path class="a" d="M42.55,40.82A6.09,6.09,0,0,0,39.47,40a5.87,5.87,0,0,0-4.37,1.82,6.17,6.17,0,0,0-1.78,4.51,6.42,6.42,0,0,0,.79,3.19,5.82,5.82,0,0,0,2.27,2.24,6.34,6.34,0,0,0,3.12.83,5.87,5.87,0,0,0,3-.84,6,6,0,0,0,2.26-2.33,6.37,6.37,0,0,0,.85-3.15,6.29,6.29,0,0,0-.84-3.14A6.09,6.09,0,0,0,42.55,40.82Z"/><path class="a" d="M60.58,40.8a6.11,6.11,0,0,0-3-.8,6.45,6.45,0,0,0-3.17.82,6,6,0,0,0-2.28,2.28,6.15,6.15,0,0,0-.83,3.14A5.65,5.65,0,0,0,53,50.47a6.75,6.75,0,0,0,8.89,0,5.87,5.87,0,0,0,1.68-4.37A6.27,6.27,0,0,0,62.77,43,5.6,5.6,0,0,0,60.58,40.8Z"/><path class="b" d="M92.7,46.13l-1.28,1.32a4.59,4.59,0,0,0-3.11-1.55,2.31,2.31,0,0,0-1.65.64A2,2,0,0,0,86,48a2.25,2.25,0,0,0,.56,1.43,8.24,8.24,0,0,0,2.39,1.63,8.78,8.78,0,0,1,3,2.21,4,4,0,0,1,.78,2.42,4.35,4.35,0,0,1-1.33,3.22A4.55,4.55,0,0,1,88,60.26a5.87,5.87,0,0,1-2.54-.58,5.58,5.58,0,0,1-2-1.61l1.24-1.41A4.36,4.36,0,0,0,88,58.37a2.91,2.91,0,0,0,2-.76,2.36,2.36,0,0,0,.84-1.8,2.3,2.3,0,0,0-.56-1.52,9,9,0,0,0-2.5-1.64,8.12,8.12,0,0,1-2.84-2.13,4,4,0,0,1-.75-2.39,3.88,3.88,0,0,1,1.2-2.92,4.16,4.16,0,0,1,3-1.17A6.3,6.3,0,0,1,92.7,46.13Z"/><path class="b" d="M94.65,44.44h2v2.83a8,8,0,0,1,2.7-2.42,7.19,7.19,0,0,1,3.42-.81,7.63,7.63,0,0,1,5.62,2.37,7.85,7.85,0,0,1,2.33,5.7,8,8,0,0,1-2.31,5.77,7.77,7.77,0,0,1-9,1.61,8.51,8.51,0,0,1-2.79-2.28V65.5h-2ZM102.58,46a5.85,5.85,0,0,0-4.33,1.79,6.12,6.12,0,0,0-1.76,4.48,6.41,6.41,0,0,0,.78,3.16,5.79,5.79,0,0,0,2.25,2.22,6.32,6.32,0,0,0,3.09.82,5.82,5.82,0,0,0,3-.83,6.09,6.09,0,0,0,2.25-2.31,6.37,6.37,0,0,0,.83-3.12,6.27,6.27,0,0,0-.83-3.11,6,6,0,0,0-2.22-2.29A6,6,0,0,0,102.58,46Z"/><path class="b" d="M125.8,54.74l1.67.88a9.08,9.08,0,0,1-1.9,2.61,7.75,7.75,0,0,1-2.42,1.51,8.59,8.59,0,0,1-3.05.52,7.35,7.35,0,0,1-5.9-2.48A8.45,8.45,0,0,1,113.87,47,7.38,7.38,0,0,1,120,44a7.62,7.62,0,0,1,6.3,3,8.35,8.35,0,0,1,1.7,5.28H114.11a6.26,6.26,0,0,0,1.72,4.4,5.44,5.44,0,0,0,4.1,1.72,6.71,6.71,0,0,0,2.29-.41,6,6,0,0,0,1.89-1.09A9.3,9.3,0,0,0,125.8,54.74Zm0-4.15a6.51,6.51,0,0,0-1.16-2.54,5.47,5.47,0,0,0-2-1.53,6.3,6.3,0,0,0-2.63-.58,5.67,5.67,0,0,0-3.9,1.46,6.5,6.5,0,0,0-1.8,3.19Z"/><path class="b" d="M145.45,44.44V59.86h-2V57.21a8.44,8.44,0,0,1-2.8,2.28,7.79,7.79,0,0,1-9-1.61,7.92,7.92,0,0,1-2.32-5.77,7.82,7.82,0,0,1,2.34-5.7A7.62,7.62,0,0,1,137.36,44a7.23,7.23,0,0,1,3.43.81,7.81,7.81,0,0,1,2.7,2.42V44.44ZM137.52,46a6,6,0,0,0-5.29,3.1,6.23,6.23,0,0,0,0,6.23,6.07,6.07,0,0,0,2.24,2.31,5.9,5.9,0,0,0,3,.83,6.27,6.27,0,0,0,3.09-.82,5.76,5.76,0,0,0,2.24-2.22,6.31,6.31,0,0,0,.79-3.16,6.16,6.16,0,0,0-1.76-4.48A5.87,5.87,0,0,0,137.52,46Z"/><path class="b" d="M148.3,38.49h2V50.66l7.14-6.22h2.92l-8.48,7.36,9,8.06h-2.79l-7.76-6.94v6.94h-2Z"/><path class="b" d="M174.27,54.74l1.67.88a9.08,9.08,0,0,1-1.9,2.61,7.75,7.75,0,0,1-2.42,1.51,8.59,8.59,0,0,1-3.05.52,7.39,7.39,0,0,1-5.91-2.48,8.36,8.36,0,0,1-2.12-5.59,8.26,8.26,0,0,1,1.8-5.23A7.38,7.38,0,0,1,168.45,44a7.62,7.62,0,0,1,6.3,3,8.35,8.35,0,0,1,1.7,5.28H162.58a6.29,6.29,0,0,0,1.71,4.4,5.48,5.48,0,0,0,4.11,1.72,6.71,6.71,0,0,0,2.29-.41,6,6,0,0,0,1.89-1.09A9.3,9.3,0,0,0,174.27,54.74Zm0-4.15a6.65,6.65,0,0,0-1.16-2.54,5.47,5.47,0,0,0-2-1.53,6.3,6.3,0,0,0-2.63-.58,5.67,5.67,0,0,0-3.9,1.46,6.5,6.5,0,0,0-1.8,3.19Z"/><path class="b" d="M177.8,44.44h2v2.25a7.17,7.17,0,0,1,1.91-2,3.77,3.77,0,0,1,2.1-.66,3.65,3.65,0,0,1,1.76.53l-1,1.67a2.71,2.71,0,0,0-1.05-.27,2.85,2.85,0,0,0-1.91.82,5.13,5.13,0,0,0-1.4,2.53,23.82,23.82,0,0,0-.37,5.32v5.22h-2Z"/><path class="b" d="M191.38,44.44h2v2.25a7.34,7.34,0,0,1,1.92-2,3.76,3.76,0,0,1,2.09-.66,3.62,3.62,0,0,1,1.76.53l-1,1.67a2.79,2.79,0,0,0-1-.27,2.87,2.87,0,0,0-1.92.82,5.13,5.13,0,0,0-1.4,2.53,24.47,24.47,0,0,0-.37,5.32v5.22h-2Z"/><path class="b" d="M212.24,54.74l1.68.88A9.1,9.1,0,0,1,212,58.23a7.53,7.53,0,0,1-2.42,1.51,8.59,8.59,0,0,1-3.05.52,7.36,7.36,0,0,1-5.9-2.48A8.45,8.45,0,0,1,200.31,47,7.38,7.38,0,0,1,206.43,44a7.61,7.61,0,0,1,6.29,3,8.36,8.36,0,0,1,1.71,5.28H200.55a6.26,6.26,0,0,0,1.72,4.4,5.44,5.44,0,0,0,4.1,1.72,6.66,6.66,0,0,0,2.29-.41,6,6,0,0,0,1.89-1.09A9,9,0,0,0,212.24,54.74Zm0-4.15a6.65,6.65,0,0,0-1.15-2.54,5.59,5.59,0,0,0-2-1.53,6.27,6.27,0,0,0-2.63-.58,5.67,5.67,0,0,0-3.9,1.46,6.66,6.66,0,0,0-1.8,3.19Z"/><path class="b" d="M224.28,46.13,223,47.45a4.57,4.57,0,0,0-3.11-1.55,2.33,2.33,0,0,0-1.65.64,2,2,0,0,0-.69,1.49,2.21,2.21,0,0,0,.57,1.43,8,8,0,0,0,2.38,1.63,8.78,8.78,0,0,1,3,2.21,4,4,0,0,1,.78,2.42A4.35,4.35,0,0,1,223,58.94a4.55,4.55,0,0,1-3.34,1.32,5.9,5.9,0,0,1-2.54-.58,5.58,5.58,0,0,1-2-1.61l1.25-1.41a4.32,4.32,0,0,0,3.22,1.71,2.89,2.89,0,0,0,2-.76,2.36,2.36,0,0,0,.29-3.32,9.12,9.12,0,0,0-2.5-1.64,7.93,7.93,0,0,1-2.84-2.13,4,4,0,0,1-.76-2.39,3.88,3.88,0,0,1,1.2-2.92A4.16,4.16,0,0,1,220,44,6.3,6.3,0,0,1,224.28,46.13Z"/><path class="b" d="M233.5,44a7.63,7.63,0,0,1,5.9,2.58,8.28,8.28,0,0,1-.12,11.22,8.14,8.14,0,0,1-11.58,0,8.26,8.26,0,0,1-.12-11.2A7.63,7.63,0,0,1,233.5,44Zm0,2a5.7,5.7,0,0,0-4.25,1.82,6.11,6.11,0,0,0-1.78,4.43,6.25,6.25,0,0,0,.81,3.11,5.75,5.75,0,0,0,2.19,2.24,6.28,6.28,0,0,0,6.06,0,5.75,5.75,0,0,0,2.19-2.24,6.25,6.25,0,0,0,.81-3.11,6.12,6.12,0,0,0-1.79-4.43A5.69,5.69,0,0,0,233.49,46Z"/><path class="b" d="M243.35,44.44h2v7.2a15.38,15.38,0,0,0,.28,3.63,4,4,0,0,0,1.62,2.24,4.94,4.94,0,0,0,2.86.82,4.86,4.86,0,0,0,2.82-.8,4.09,4.09,0,0,0,1.6-2.11,14.69,14.69,0,0,0,.3-3.78v-7.2h2V52a11.88,11.88,0,0,1-.74,4.8,5.68,5.68,0,0,1-2.24,2.53,8.12,8.12,0,0,1-7.51,0,5.58,5.58,0,0,1-2.25-2.55,12.35,12.35,0,0,1-.75-4.92Z"/><path class="b" d="M258.9,44.44h2v2.25a7.17,7.17,0,0,1,1.91-2,3.77,3.77,0,0,1,2.1-.66,3.65,3.65,0,0,1,1.76.53l-1,1.67a2.71,2.71,0,0,0-1.05-.27,2.85,2.85,0,0,0-1.91.82,5.13,5.13,0,0,0-1.4,2.53,23.82,23.82,0,0,0-.37,5.32v5.22h-2Z"/><path class="b" d="M281.75,47.64l-1.57,1a6.6,6.6,0,0,0-5.56-2.71,6.43,6.43,0,0,0-4.68,1.82,5.89,5.89,0,0,0-1.86,4.4,6.26,6.26,0,0,0,.85,3.17,6.07,6.07,0,0,0,2.35,2.31,7,7,0,0,0,3.35.82,6.75,6.75,0,0,0,5.55-2.71l1.57,1a7.31,7.31,0,0,1-3,2.58,9.47,9.47,0,0,1-4.24.92,8.4,8.4,0,0,1-6.07-2.33,7.57,7.57,0,0,1-2.4-5.65,8.09,8.09,0,0,1,1.12-4.16,8,8,0,0,1,3.1-3A9,9,0,0,1,274.7,44a9.44,9.44,0,0,1,2.95.47,8.19,8.19,0,0,1,2.42,1.22A6.62,6.62,0,0,1,281.75,47.64Z"/><path class="b" d="M297,54.74l1.67.88a8.89,8.89,0,0,1-1.9,2.61,7.64,7.64,0,0,1-2.42,1.51,8.59,8.59,0,0,1-3.05.52,7.35,7.35,0,0,1-5.9-2.48A8.45,8.45,0,0,1,285,47,7.38,7.38,0,0,1,291.13,44a7.62,7.62,0,0,1,6.3,3,8.35,8.35,0,0,1,1.7,5.28H285.26a6.26,6.26,0,0,0,1.72,4.4,5.44,5.44,0,0,0,4.1,1.72,6.66,6.66,0,0,0,2.29-.41,6,6,0,0,0,1.89-1.09A9,9,0,0,0,297,54.74Zm0-4.15a6.51,6.51,0,0,0-1.16-2.54,5.47,5.47,0,0,0-2-1.53,6.3,6.3,0,0,0-2.63-.58,5.67,5.67,0,0,0-3.9,1.46,6.5,6.5,0,0,0-1.8,3.19Z"/><path class="b" d="M322.64,47.64l-1.57,1a6.62,6.62,0,0,0-5.57-2.71,6.43,6.43,0,0,0-4.67,1.82,5.9,5.9,0,0,0-1.87,4.4,6.27,6.27,0,0,0,.86,3.17,6.07,6.07,0,0,0,2.35,2.31,6.92,6.92,0,0,0,3.35.82,6.77,6.77,0,0,0,5.55-2.71l1.57,1a7.45,7.45,0,0,1-3,2.58,9.5,9.5,0,0,1-4.24.92,8.4,8.4,0,0,1-6.07-2.33A7.58,7.58,0,0,1,307,52.28a8.1,8.1,0,0,1,1.13-4.16,7.92,7.92,0,0,1,3.1-3,9,9,0,0,1,4.4-1.08,9.5,9.5,0,0,1,3,.47A8.13,8.13,0,0,1,321,45.73,6.51,6.51,0,0,1,322.64,47.64Z"/><path class="b" d="M337.84,54.74l1.67.88a9.08,9.08,0,0,1-1.9,2.61,7.68,7.68,0,0,1-2.43,1.51,8.51,8.51,0,0,1-3.05.52,7.38,7.38,0,0,1-5.9-2.48,8.36,8.36,0,0,1-2.12-5.59,8.26,8.26,0,0,1,1.8-5.23A7.38,7.38,0,0,1,332,44a7.62,7.62,0,0,1,6.3,3,8.41,8.41,0,0,1,1.7,5.28H326.15a6.25,6.25,0,0,0,1.71,4.4,5.47,5.47,0,0,0,4.1,1.72,6.72,6.72,0,0,0,2.3-.41,6,6,0,0,0,1.89-1.09A9.3,9.3,0,0,0,337.84,54.74Zm0-4.15a6.65,6.65,0,0,0-1.16-2.54,5.43,5.43,0,0,0-2-1.53,6.22,6.22,0,0,0-2.62-.58,5.66,5.66,0,0,0-3.9,1.46,6.58,6.58,0,0,0-1.81,3.19Z"/><path class="b" d="M342.12,44.44h2V47.2a8.31,8.31,0,0,1,2.63-2.37,6.57,6.57,0,0,1,3.15-.79,5.52,5.52,0,0,1,3.07.88,5.33,5.33,0,0,1,2,2.37,12.65,12.65,0,0,1,.63,4.63v7.94h-2V52.5a17.83,17.83,0,0,0-.22-3.55,4,4,0,0,0-1.32-2.31,4.06,4.06,0,0,0-2.56-.77,4.9,4.9,0,0,0-3.22,1.19A5.6,5.6,0,0,0,344.39,50a20.53,20.53,0,0,0-.28,4.2v5.65h-2Z"/><path class="b" d="M360,38.72h2v5.72h3.15v1.72h-3.15v13.7h-2V46.16h-2.71V44.44H360Z"/><path class="b" d="M379.45,54.74l1.67.88a9.08,9.08,0,0,1-1.9,2.61,7.68,7.68,0,0,1-2.43,1.51,8.51,8.51,0,0,1-3.05.52,7.38,7.38,0,0,1-5.9-2.48A8.46,8.46,0,0,1,367.52,47,7.38,7.38,0,0,1,373.63,44a7.62,7.62,0,0,1,6.3,3,8.41,8.41,0,0,1,1.7,5.28H367.76a6.25,6.25,0,0,0,1.71,4.4,5.47,5.47,0,0,0,4.1,1.72,6.72,6.72,0,0,0,2.3-.41,6,6,0,0,0,1.89-1.09A9.3,9.3,0,0,0,379.45,54.74Zm0-4.15a6.65,6.65,0,0,0-1.16-2.54,5.43,5.43,0,0,0-2-1.53,6.22,6.22,0,0,0-2.62-.58,5.66,5.66,0,0,0-3.9,1.46,6.5,6.5,0,0,0-1.8,3.19Z"/><path class="b" d="M383,44.44h2v2.25a7.17,7.17,0,0,1,1.91-2A3.77,3.77,0,0,1,389,44a3.65,3.65,0,0,1,1.76.53l-1,1.67a2.71,2.71,0,0,0-1.05-.27,2.85,2.85,0,0,0-1.91.82,5.13,5.13,0,0,0-1.4,2.53,23.82,23.82,0,0,0-.37,5.32v5.22h-2Z"/></symbol></defs><use width="390.78" height="68.76" xlink:href="#a"/></svg>